<svg width="300" height="70" viewBox="0 0 300 70" fill="none" xmlns="http://www.w3.org/2000/svg">
<path d="M15.728 69.576C10.992 69.576 7.312 68.36 4.688 65.928C2.064 63.432 0.752 59.56 0.752 54.312C0.752 49.896 1.616 45.032 3.344 39.72C5.136 34.408 7.952 29.832 11.792 25.992C15.696 22.088 20.624 20.136 26.576 20.136C30.416 20.136 33.136 20.968 34.736 22.632C36.4 24.296 37.232 26.408 37.232 28.968C37.232 31.208 36.752 32.936 35.792 34.152C34.832 35.368 33.616 35.976 32.144 35.976C31.056 35.976 29.936 35.592 28.784 34.824C29.552 32.712 29.936 30.824 29.936 29.16C29.936 27.944 29.712 26.984 29.264 26.28C28.816 25.576 28.144 25.224 27.248 25.224C25.328 25.224 23.408 26.792 21.488 29.928C19.568 33.064 18 36.872 16.784 41.352C15.568 45.832 14.96 49.864 14.96 53.448C14.96 56.584 15.504 58.728 16.592 59.88C17.68 60.968 19.44 61.512 21.872 61.512C25.328 61.512 28.272 60.712 30.704 59.112C33.2 57.512 35.92 55.08 38.864 51.816H42.128C35.024 63.656 26.224 69.576 15.728 69.576ZM50.3638 69.576C46.7158 69.576 43.6758 68.328 41.2438 65.832C38.8117 63.336 37.5957 59.432 37.5957 54.12C37.5957 49.384 38.5238 44.424 40.3798 39.24C42.2998 33.992 45.1158 29.576 48.8278 25.992C52.6038 22.344 57.0838 20.52 62.2678 20.52C64.8918 20.52 66.8438 20.968 68.1238 21.864C69.4038 22.76 70.0438 23.944 70.0438 25.416V26.088L71.0998 21H84.9238L78.0118 53.64C77.7558 54.6 77.6278 55.624 77.6278 56.712C77.6278 59.464 78.9398 60.84 81.5638 60.84C83.3558 60.84 84.8918 60.008 86.1718 58.344C87.5158 56.68 88.5718 54.504 89.3398 51.816H93.3718C91.0038 58.728 88.0598 63.432 84.5398 65.928C81.0838 68.36 77.5958 69.576 74.0758 69.576C71.3878 69.576 69.2118 68.84 67.5478 67.368C65.9478 65.832 64.9878 63.624 64.6678 60.744C62.8118 63.368 60.7318 65.512 58.4278 67.176C56.1878 68.776 53.4998 69.576 50.3638 69.576ZM56.6038 60.264C58.2038 60.264 59.7718 59.528 61.3078 58.056C62.9078 56.52 63.9958 54.44 64.5718 51.816L69.1798 30.12C69.1798 29.288 68.8598 28.488 68.2198 27.72C67.5798 26.888 66.5878 26.472 65.2438 26.472C62.6838 26.472 60.3798 27.976 58.3318 30.984C56.2838 33.928 54.6838 37.512 53.5318 41.736C52.3798 45.896 51.8038 49.576 51.8038 52.776C51.8038 55.976 52.2518 58.024 53.1478 58.92C54.1078 59.816 55.2598 60.264 56.6038 60.264ZM124.031 69.576C120.127 69.576 117.247 68.552 115.391 66.504C113.599 64.392 112.703 61.8 112.703 58.728C112.703 57.384 112.863 55.88 113.183 54.216C113.503 52.488 113.823 50.824 114.143 49.224C114.527 47.624 114.783 46.6 114.911 46.152C115.423 43.912 115.903 41.704 116.351 39.528C116.799 37.352 117.023 35.592 117.023 34.248C117.023 30.984 115.871 29.352 113.567 29.352C111.903 29.352 110.431 30.184 109.151 31.848C107.871 33.448 106.847 35.56 106.079 38.184L99.551 69H85.727L95.903 21H109.727L108.671 25.992C111.871 22.408 115.615 20.616 119.903 20.616C123.167 20.616 125.759 21.512 127.679 23.304C129.599 25.096 130.559 27.816 130.559 31.464C130.559 33.32 130.335 35.4 129.887 37.704C129.439 39.944 128.799 42.696 127.967 45.96C127.455 47.944 126.975 49.896 126.527 51.816C126.143 53.672 125.951 55.144 125.951 56.232C125.951 57.512 126.239 58.504 126.815 59.208C127.391 59.912 128.383 60.264 129.791 60.264C131.711 60.264 133.247 59.592 134.399 58.248C135.551 56.84 136.703 54.696 137.855 51.816H141.887C139.519 58.856 136.767 63.592 133.631 66.024C130.559 68.392 127.359 69.576 124.031 69.576ZM149.364 69.576C145.716 69.576 142.676 68.328 140.244 65.832C137.812 63.336 136.596 59.432 136.596 54.12C136.596 49.384 137.524 44.424 139.38 39.24C141.3 33.992 144.116 29.576 147.828 25.992C151.604 22.344 156.084 20.52 161.268 20.52C163.892 20.52 165.844 20.968 167.124 21.864C168.404 22.76 169.044 23.944 169.044 25.416V25.8L173.748 3.72L187.956 1.8L176.916 53.64C176.66 54.6 176.532 55.624 176.532 56.712C176.532 57.992 176.82 58.92 177.396 59.496C178.036 60.008 179.06 60.264 180.468 60.264C182.26 60.264 183.796 59.496 185.076 57.96C186.42 56.424 187.476 54.376 188.244 51.816H192.276C188.372 63.272 181.94 69 172.98 69C170.356 69 168.212 68.296 166.548 66.888C164.948 65.48 163.956 63.432 163.572 60.744C161.908 63.304 159.892 65.416 157.524 67.08C155.22 68.744 152.5 69.576 149.364 69.576ZM155.604 60.264C157.14 60.264 158.676 59.56 160.212 58.152C161.812 56.744 162.9 54.792 163.476 52.296V51.816L168.18 29.832C167.604 27.592 166.292 26.472 164.244 26.472C161.684 26.472 159.38 27.976 157.332 30.984C155.284 33.928 153.684 37.512 152.532 41.736C151.38 45.896 150.804 49.576 150.804 52.776C150.804 55.976 151.252 58.024 152.148 58.92C153.108 59.816 154.26 60.264 155.604 60.264ZM204.313 15.816C202.201 15.816 200.409 15.08 198.937 13.608C197.465 12.136 196.729 10.344 196.729 8.232C196.729 6.12 197.465 4.328 198.937 2.856C200.409 1.32 202.201 0.551994 204.313 0.551994C206.425 0.551994 208.217 1.32 209.689 2.856C211.225 4.328 211.993 6.12 211.993 8.232C211.993 10.344 211.225 12.136 209.689 13.608C208.217 15.08 206.425 15.816 204.313 15.816ZM197.785 69.576C194.713 69.576 192.217 68.616 190.297 66.696C188.441 64.776 187.513 61.896 187.513 58.056C187.513 56.456 187.769 54.376 188.281 51.816L194.809 21H208.633L201.721 53.64C201.465 54.6 201.337 55.624 201.337 56.712C201.337 57.992 201.625 58.92 202.201 59.496C202.841 60.008 203.865 60.264 205.273 60.264C207.129 60.264 208.857 59.496 210.457 57.96C212.057 56.36 213.209 54.312 213.913 51.816H217.945C215.577 58.728 212.537 63.432 208.825 65.928C205.113 68.36 201.433 69.576 197.785 69.576ZM225.395 69.576C221.747 69.576 218.707 68.328 216.275 65.832C213.843 63.336 212.627 59.432 212.627 54.12C212.627 49.384 213.555 44.424 215.411 39.24C217.331 33.992 220.147 29.576 223.859 25.992C227.635 22.344 232.115 20.52 237.299 20.52C239.923 20.52 241.875 20.968 243.155 21.864C244.435 22.76 245.075 23.944 245.075 25.416V25.8L249.779 3.72L263.987 1.8L252.947 53.64C252.691 54.6 252.563 55.624 252.563 56.712C252.563 57.992 252.851 58.92 253.427 59.496C254.067 60.008 255.091 60.264 256.499 60.264C258.291 60.264 259.827 59.496 261.107 57.96C262.451 56.424 263.507 54.376 264.275 51.816H268.307C264.403 63.272 257.971 69 249.011 69C246.387 69 244.243 68.296 242.579 66.888C240.979 65.48 239.987 63.432 239.603 60.744C237.939 63.304 235.923 65.416 233.555 67.08C231.251 68.744 228.531 69.576 225.395 69.576ZM231.635 60.264C233.171 60.264 234.707 59.56 236.243 58.152C237.843 56.744 238.931 54.792 239.507 52.296V51.816L244.211 29.832C243.635 27.592 242.323 26.472 240.275 26.472C237.715 26.472 235.411 27.976 233.363 30.984C231.315 33.928 229.715 37.512 228.563 41.736C227.411 45.896 226.835 49.576 226.835 52.776C226.835 55.976 227.283 58.024 228.179 58.92C229.139 59.816 230.291 60.264 231.635 60.264ZM277.849 69.576C273.177 69.576 269.529 68.36 266.905 65.928C264.28 63.432 262.968 59.56 262.968 54.312C262.968 49.896 263.832 45.032 265.561 39.72C267.289 34.408 270.105 29.832 274.009 25.992C277.913 22.088 282.873 20.136 288.889 20.136C295.929 20.136 299.449 23.208 299.449 29.352C299.449 32.936 298.425 36.232 296.377 39.24C294.329 42.248 291.609 44.68 288.217 46.536C284.825 48.328 281.209 49.352 277.369 49.608C277.241 51.016 277.177 51.976 277.177 52.488C277.177 57.8 279.161 60.456 283.129 60.456C284.921 60.456 286.841 59.976 288.889 59.016C290.937 58.056 292.793 56.84 294.457 55.368C292.729 64.84 287.193 69.576 277.849 69.576ZM278.041 45C280.473 44.936 282.745 44.136 284.857 42.6C287.033 41.064 288.761 39.112 290.041 36.744C291.385 34.312 292.057 31.784 292.057 29.16C292.057 26.536 291.257 25.224 289.656 25.224C287.417 25.224 285.177 27.272 282.937 31.368C280.761 35.4 279.129 39.944 278.041 45Z" fill="white"/>
</svg>
