<svg width="198" height="69" viewBox="0 0 198 69" fill="none" xmlns="http://www.w3.org/2000/svg">
<path d="M14.944 68.576C11.872 68.576 9.28 68 7.168 66.848C5.056 65.632 3.488 64.096 2.464 62.24C1.44 60.32 0.928 58.336 0.928 56.288C0.928 54.176 1.44 52.352 2.464 50.816C3.424 49.216 4.608 48.064 6.016 47.36C8.512 42.88 10.688 38.368 12.544 33.824C14.4 29.216 16.16 24.256 17.824 18.944L32.032 17.024C32.352 25.216 32.896 34.08 33.664 43.616C33.984 47.456 34.144 50.24 34.144 51.968C34.144 53.44 34.016 54.656 33.76 55.616C36.768 53.888 39.072 52.288 40.672 50.816H44.704C40.608 55.552 35.712 59.552 30.016 62.816C28.16 64.8 25.856 66.272 23.104 67.232C20.416 68.128 17.696 68.576 14.944 68.576ZM11.872 60.992C14.24 60.992 16.224 60.288 17.824 58.88C19.424 57.472 20.224 55.2 20.224 52.064C20.224 50.144 20.032 47.456 19.648 44C19.008 36.704 18.592 31.808 18.4 29.312C16.864 34.368 14.272 40.416 10.624 47.456C12.096 48.224 12.832 49.344 12.832 50.816C12.832 52.032 12.416 53.12 11.584 54.08C10.816 55.04 9.824 55.52 8.608 55.52C7.264 55.52 6.4 55.104 6.016 54.272C6.016 56.576 6.464 58.272 7.36 59.36C8.32 60.448 9.824 60.992 11.872 60.992ZM54.3843 68.576C49.6483 68.576 45.9683 67.36 43.3443 64.928C40.7203 62.432 39.4082 58.56 39.4082 53.312C39.4082 48.896 40.2722 44.032 42.0003 38.72C43.7283 33.408 46.5443 28.832 50.4483 24.992C54.3523 21.088 59.3123 19.136 65.3282 19.136C72.3683 19.136 75.8883 22.208 75.8883 28.352C75.8883 31.936 74.8643 35.232 72.8163 38.24C70.7683 41.248 68.0483 43.68 64.6562 45.536C61.2643 47.328 57.6483 48.352 53.8083 48.608C53.6803 50.528 53.6163 51.808 53.6163 52.448C53.6163 55.584 54.1603 57.728 55.2483 58.88C56.3363 59.968 58.0963 60.512 60.5283 60.512C63.9843 60.512 66.9283 59.712 69.3603 58.112C71.8563 56.512 74.5763 54.08 77.5203 50.816H80.7843C73.6803 62.656 64.8803 68.576 54.3843 68.576ZM54.5763 44C56.9443 43.872 59.1843 43.04 61.2963 41.504C63.4723 39.968 65.2003 38.016 66.4803 35.648C67.8243 33.28 68.4963 30.784 68.4963 28.16C68.4963 25.536 67.6963 24.224 66.0963 24.224C63.7923 24.224 61.5203 26.24 59.2803 30.272C57.1043 34.304 55.5363 38.88 54.5763 44ZM87.004 68.576C83.932 68.576 81.436 67.616 79.516 65.696C77.66 63.776 76.732 60.896 76.732 57.056C76.732 55.456 76.988 53.376 77.5 50.816L87.772 2.72L101.98 0.799995L90.94 52.64C90.684 53.6 90.556 54.624 90.556 55.712C90.556 56.992 90.844 57.92 91.42 58.496C92.06 59.008 93.084 59.264 94.492 59.264C96.348 59.264 98.076 58.496 99.676 56.96C101.276 55.36 102.428 53.312 103.132 50.816H107.164C104.796 57.728 101.756 62.432 98.044 64.928C94.332 67.36 90.652 68.576 87.004 68.576ZM114.614 68.576C110.966 68.576 107.926 67.328 105.494 64.832C103.062 62.336 101.846 58.432 101.846 53.12C101.846 48.384 102.774 43.424 104.63 38.24C106.55 32.992 109.366 28.576 113.078 24.992C116.854 21.344 121.334 19.52 126.518 19.52C129.142 19.52 131.094 19.968 132.374 20.864C133.654 21.76 134.294 22.944 134.294 24.416V25.088L135.35 20H149.174L142.262 52.64C142.006 53.6 141.878 54.624 141.878 55.712C141.878 58.464 143.19 59.84 145.814 59.84C147.606 59.84 149.142 59.008 150.422 57.344C151.766 55.68 152.822 53.504 153.59 50.816H157.622C155.254 57.728 152.31 62.432 148.79 64.928C145.334 67.36 141.846 68.576 138.326 68.576C135.638 68.576 133.462 67.84 131.798 66.368C130.198 64.832 129.238 62.624 128.918 59.744C127.062 62.368 124.982 64.512 122.678 66.176C120.438 67.776 117.75 68.576 114.614 68.576ZM120.854 59.264C122.454 59.264 124.022 58.528 125.558 57.056C127.158 55.52 128.246 53.44 128.822 50.816L133.43 29.12C133.43 28.288 133.11 27.488 132.47 26.72C131.83 25.888 130.838 25.472 129.494 25.472C126.934 25.472 124.63 26.976 122.582 29.984C120.534 32.928 118.934 36.512 117.782 40.736C116.63 44.896 116.054 48.576 116.054 51.776C116.054 54.976 116.502 57.024 117.398 57.92C118.358 58.816 119.51 59.264 120.854 59.264ZM186.553 68.576C183.161 68.576 180.697 67.552 179.161 65.504C177.625 63.456 176.857 60.864 176.857 57.728C176.857 56.384 177.017 54.88 177.337 53.216C177.657 51.488 177.977 49.824 178.297 48.224C178.681 46.624 178.937 45.6 179.065 45.152C179.577 42.912 180.057 40.704 180.505 38.528C180.953 36.352 181.177 34.592 181.177 33.248C181.177 29.984 180.025 28.352 177.721 28.352C176.185 28.352 174.777 29.056 173.497 30.464C172.281 31.872 171.289 33.728 170.521 36.032L163.705 68H149.881L163.801 2.72L178.009 0.799995L172.825 24.896C176.025 21.376 179.769 19.616 184.057 19.616C187.321 19.616 189.913 20.512 191.833 22.304C193.753 24.096 194.713 26.816 194.713 30.464C194.713 32.32 194.489 34.4 194.041 36.704C193.593 38.944 192.953 41.696 192.121 44.96C191.609 46.944 191.129 48.896 190.681 50.816C190.297 52.672 190.105 54.144 190.105 55.232C190.105 56.512 190.393 57.504 190.969 58.208C191.545 58.912 192.537 59.264 193.945 59.264C195.481 59.264 196.537 59.072 197.113 58.688C196.729 61.952 195.545 64.416 193.561 66.08C191.641 67.744 189.305 68.576 186.553 68.576Z" fill="white"/>
</svg>
